<?xml version="1.0" encoding="utf-8"?>
<!-- Generator: Adobe Illustrator 19.0.0, SVG Export Plug-In . SVG Version: 6.00 Build 0)  -->
<svg version="1.1" id="Capa_1" xmlns="http://www.w3.org/2000/svg" xmlns:xlink="http://www.w3.org/1999/xlink" x="0px" y="0px"
	 viewBox="-223 25 512 512" style="enable-background:new -223 25 512 512;" xml:space="preserve">
<style type="text/css">
	.st0{fill:#FFFFFF;}
</style>
<g>
	<path class="st0" d="M288.7,261.5c-1.1-8.8-5.6-16.6-12.7-22L181.9,167V94.2c0-18.3-14.9-33.2-33.2-33.2
		c-18.3,0-33.2,14.9-33.2,33.2v21.7l-62.4-48C47.4,63.5,40.3,61,33,61c-7.3,0-14.5,2.4-20.2,6.9l-222.8,171.6
		c-14.5,11.2-17.2,32-6,46.5c6.3,8.2,15.9,12.9,26.3,12.9c5.3,0,10.5-1.2,15.1-3.6v172.5c0,18.3,14.9,33.2,33.2,33.2h149V344.4h51
		V501h146.9c18.3,0,33.2-14.9,33.2-33.2V294c5.2,3.2,11.1,4.9,17.3,4.9c10.4,0,19.9-4.7,26.3-12.9
		C287.5,279,289.9,270.3,288.7,261.5z M257.8,267.3c-0.6,0.8-1.5,1-2,1c-0.6,0-1.1-0.2-1.5-0.5L207.8,232v235.8
		c0,1.4-1.1,2.5-2.5,2.5H89.1l0-156.6H-23.2v156.6h-118.3c-1.4,0-2.5-1.1-2.5-2.5V233.7l-44.3,34.1c-0.5,0.3-1,0.5-1.5,0.5
		c-0.5,0-1.3-0.1-2-1c-0.5-0.7-0.6-1.4-0.5-1.8c0.1-0.5,0.3-1.1,0.9-1.6L31.5,92.2c1.1-0.8,1.9-0.9,3,0l111.7,86V94.2
		c0-1.4,1.1-2.5,2.5-2.5c1.4,0,2.5,1.1,2.5,2.5v87.9l106.1,81.7c0.7,0.5,0.9,1.2,0.9,1.6C258.4,265.9,258.3,266.6,257.8,267.3z"/>
</g>
</svg>
