<?xml version="1.0" encoding="utf-8"?>
<!-- Generator: Adobe Illustrator 19.0.0, SVG Export Plug-In . SVG Version: 6.00 Build 0)  -->
<svg version="1.1" id="Layer_1" xmlns="http://www.w3.org/2000/svg" xmlns:xlink="http://www.w3.org/1999/xlink" x="0px" y="0px"
	 viewBox="139.6 293.2 586 183.9" style="enable-background:new 139.6 293.2 586 183.9;" xml:space="preserve">
<style type="text/css">
	.st0{fill:#00A29B;stroke:#00B9AC;stroke-miterlimit:10;}
	.st1{fill:#2ECD9E;}
	.st2{fill:#00B698;}
	.st3{font-family:'Quicksand-Regular';}
	.st4{font-size:122px;}
	.st5{font-family:'Quicksand-Medium';}
</style>
<path class="st0" d="M443.9,125.4"/>
<path class="st1" d="M564.2,337.2c13.8,0,25,11.1,25,24.8c0,7-3,13.4-7.7,17.9l-40.3,40.3l-41-41c-4.3-4.5-7-10.5-7-17.2
	c0-13.7,11.2-24.8,25-24.8c10.4,0,19.3,6.3,23,15.3C544.9,343.5,553.8,337.2,564.2,337.2 M564.2,333.1c-9.2,0-17.6,4.2-23,11.2
	c-5.4-7-13.9-11.2-23-11.2c-16.1,0-29.1,13-29.1,29c0,7.5,2.9,14.6,8.1,20.1l41.1,41.1l3,3l3-3l40.3-40.3c5.7-5.5,8.9-12.9,8.9-20.8
	C593.3,346.1,580.2,333.1,564.2,333.1L564.2,333.1z"/>
<text transform="matrix(1 0 0 1 178.4455 406.9348)"><tspan x="0" y="0" class="st2 st3 st4">S</tspan><tspan x="81.4" y="0" class="st2 st5 st4">app</tspan><tspan x="306.1" y="0" class="st2 st3 st4">   rt</tspan></text>
</svg>
